# xmcd CD database file
#
# Track frame offsets:
#	150
#	22709
#	33192
#	48590
#	64792
#	80257
#	92890
#	104565
#	115483
#	130258
#	138795
#	154087
#	169955
#
# Disc length: 2678 seconds
#
# Revision: 1
# Processed by: cddbd v1.5.1PL2 Copyright (c) Steve Scherf et al.
# Submitted via: CDex 1.50
#
DISCID=a60a740d
DTITLE=B.B. King - B.B. King
DYEAR=2005
DGENRE=Blues
TTITLE0=The Thrill Is Gone
TTITLE1=Why I Sing The Blues
TTITLE2=Walkin' and Cryin'
TTITLE3=The Other Night Blues
TTITLE4=Calonia
TTITLE5=Please Love Me
TTITLE6=Payin' the Cost To Be The Boss
TTITLE7=Catfish Blues
TTITLE8=B.B. Boogie
TTITLE9=A New Way Of Driving
TTITLE10=How Blue Can You Get
TTITLE11=Long Nights
TTITLE12=Outside Help
EXTD=YEAR: 2005
EXTT0=
EXTT1=
EXTT2=
EXTT3=
EXTT4=
EXTT5=
EXTT6=
EXTT7=
EXTT8=
EXTT9=
EXTT10=
EXTT11=
EXTT12=
PLAYORDER=
